<?xml version="1.0" encoding="utf-8"?>
<!-- Generator: Adobe Illustrator 16.0.0, SVG Export Plug-In . SVG Version: 6.00 Build 0)  -->
<!DOCTYPE svg PUBLIC "-//W3C//DTD SVG 1.1//EN" "http://www.w3.org/Graphics/SVG/1.1/DTD/svg11.dtd">
<svg version="1.1" id="Calque_1" xmlns="http://www.w3.org/2000/svg" xmlns:xlink="http://www.w3.org/1999/xlink" x="0px" y="0px"
	 width="841.89px" height="595.28px" viewBox="0 0 841.89 595.28" enable-background="new 0 0 841.89 595.28" xml:space="preserve">
<g>
	<circle fill="#FFFFFF" cx="421.25" cy="305.961" r="211.529"/>
	<path d="M421.25,534.412c-125.968,0-228.451-102.48-228.451-228.451c0-125.968,102.483-228.451,228.451-228.451
		c125.97,0,228.451,102.483,228.451,228.451C649.701,431.932,547.22,534.412,421.25,534.412z M421.25,111.354
		c-107.307,0-194.607,87.3-194.607,194.606s87.3,194.607,194.607,194.607s194.606-87.301,194.606-194.607
		S528.557,111.354,421.25,111.354z"/>
</g>
<g>
	<circle fill="#E30613" cx="421.25" cy="305.961" r="115.636"/>
</g>
<g>
	<ellipse fill="#E30613" cx="542.187" cy="131.044" rx="52.307" ry="53.534"/>
	<path d="M542.188,201.5c-38.178,0-69.231-31.606-69.231-70.457s31.054-70.457,69.231-70.457c38.171,0,69.229,31.606,69.229,70.457
		S580.359,201.5,542.188,201.5z M542.188,94.432c-19.515,0-35.387,16.425-35.387,36.612s15.872,36.612,35.387,36.612
		c19.508,0,35.384-16.425,35.384-36.612S561.696,94.432,542.188,94.432z"/>
</g>
</svg>
