<?xml version="1.0" encoding="utf-8"?>
<!-- Svg Vector Icons : http://www.onlinewebfonts.com/icon -->
<!DOCTYPE svg PUBLIC "-//W3C//DTD SVG 1.1//EN" "http://www.w3.org/Graphics/SVG/1.1/DTD/svg11.dtd">
<svg version="1.1" xmlns="http://www.w3.org/2000/svg" xmlns:xlink="http://www.w3.org/1999/xlink" x="0px" y="0px" viewBox="0 0 1000 1000" enable-background="new 0 0 1000 1000" xml:space="preserve">
<metadata> Svg Vector Icons : http://www.onlinewebfonts.com/icon </metadata>
<g><g transform="translate(0.000000,642.000000) scale(0.100000,-0.100000)"><path d="M896.9,1420.8V-3480l2607.3,6.1c2876.8,4.6,2674.7-1.5,3187.6,104.1c764,157.7,1416.2,512.9,1814.2,989c407.2,486.8,597.1,1039.6,597.1,1733.1c0,1212.5-572.6,2073-1622.9,2435.8l-169.9,58.2l150,79.6c442.5,231.2,799.2,587.9,982.9,981.4c189.8,405.7,245,995.2,147,1561.6c-137.8,794.6-640,1359.5-1446.8,1627.5c-318.5,105.6-733.4,177.6-1186.5,208.2c-153.1,9.2-1139.1,15.3-2651.7,15.3H896.9V1420.8z M5254.1,4635.9c708.9-42.9,1080.9-257.2,1241.7-715c39.8-113.3,42.9-133.2,42.9-402.7c0-310.8-15.3-395-101-575.7c-127.1-269.5-388.9-451.6-794.6-552.7c-87.3-21.4-258.8-26-1342.7-30.6l-1244.7-6.1v1149.8v1148.3h984.4C4580.5,4651.2,5127.1,4643.5,5254.1,4635.9z M5877.3,842.1c575.7-131.7,892.6-402.7,1016.6-872.7c47.5-183.7,65.8-575.7,35.2-765.5c-85.7-534.3-434.8-848.2-1076.3-970.7c-165.3-30.6-222-32.1-1483.5-38.3l-1313.6-6.1v1348.8V886.4l1336.6-6.1C5704.3,875.7,5730.3,874.2,5877.3,842.1z"/></g></g>
</svg>