<?xml version="1.0" encoding="utf-8"?>
<!-- Generator: Adobe Illustrator 15.0.0, SVG Export Plug-In . SVG Version: 6.00 Build 0)  -->
<!DOCTYPE svg PUBLIC "-//W3C//DTD SVG 1.1//EN" "http://www.w3.org/Graphics/SVG/1.1/DTD/svg11.dtd">
<svg version="1.1" id="Capa_1" xmlns="http://www.w3.org/2000/svg" xmlns:xlink="http://www.w3.org/1999/xlink" x="0px" y="0px"
	 width="536.273px" height="536.273px" viewBox="0 0 536.273 536.273" enable-background="new 0 0 536.273 536.273"
	 xml:space="preserve">
<path d="M531.225,25.108H85.138c-3.379,0-6.652,2.687-7.313,6.004l-15.582,78.44c-0.661,3.316,1.548,6.004,4.926,6.004h355.641
	c3.378,0,5.587,2.687,4.927,6.004l-9.181,46.169c-0.661,3.316-3.936,6.004-7.313,6.004H55.291c-3.378,0-6.646,2.687-7.289,6.003
	l-15.317,78.428c-0.649,3.317,1.565,6.009,4.944,6.009h355.641c3.378,0,5.581,2.688,4.914,5.998l-18.299,91.23
	c-0.667,3.316-3.808,6.861-7.015,7.926l-136.385,45.185c-3.207,1.064-8.366,0.948-11.524-0.258l-117.082-44.67
	c-3.157-1.205-5.189-4.871-4.534-8.188l6.463-32.754c0.654-3.317-1.556-6.004-4.934-6.004H26.667c-3.378,0-6.659,2.687-7.319,6.004
	L0.125,425.057c-0.661,3.316,1.365,6.982,4.522,8.188l201.134,76.936c3.158,1.206,8.317,1.322,11.524,0.257l233.233-77.454
	c3.207-1.065,6.348-4.615,7.009-7.932l78.61-393.944C536.812,27.795,534.609,25.108,531.225,25.108z"/>
</svg>
