<?xml version="1.0" encoding="utf-8"?>
<!-- Generator: Adobe Illustrator 16.0.0, SVG Export Plug-In . SVG Version: 6.00 Build 0)  -->
<!DOCTYPE svg PUBLIC "-//W3C//DTD SVG 1.1//EN" "http://www.w3.org/Graphics/SVG/1.1/DTD/svg11.dtd">
<svg version="1.1" id="Layer_1" xmlns="http://www.w3.org/2000/svg" xmlns:xlink="http://www.w3.org/1999/xlink" x="0px" y="0px"
	 width="512px" height="512px" viewBox="0 0 512 512" enable-background="new 0 0 512 512" xml:space="preserve">
<path fill="none" d="M312.301,362.15c-18.608-0.585-18.246,13.205-18.246,13.205l31.92,0.206c0,0,0.668-3.913-2.265-8.444
	C321.205,363.254,318.891,362.356,312.301,362.15z"/>
<path fill="none" d="M144.954,344.876c-12.134-4.283-23.494,1.705-28.008,6.59c-5.84,6.327-7.817,13.716-9.885,23.89
	c-1.541,7.554-2.801,15.527,0,21.417c4.959,10.413,20.421,8.139,37.069,8.238c2.471-6.623,4.514-14.062,6.59-21.418
	c2.174-7.727,5.346-16.104,4.942-23.065C155.227,353.081,148.982,346.301,144.954,344.876z"/>
<path d="M301.724,225.406c51.69,6.903,90.234-14.811,103.546-48.602c-15.215,16.146-40.907,27.637-65.505,27.464
	c-55.011-0.354-116.817-49.632-109.889-118.333c0.593-5.915,2.965-15.19,9.3-27.217c-18.238,22.991-29.31,41.945-26.204,73.709
	C217.223,176.063,258.451,219.615,301.724,225.406z"/>
<path d="M425.683,345.873c-5.107-3.073-17.249-1.747-27.637-1.747c-4.062,0-11.138,0-16.088,0c-10.075,0-16.039-0.667-17.061,3.222
	c-3.146,12.01-16.475,78.257-16.475,78.257h21.417l14.004-60.958c0,0,8.419,0,11.533,0c13.345,0,37.868-0.362,37.868-0.362
	S430.37,348.698,425.683,345.873z"/>
<path d="M473.773,332.38l-36.385,50.389l-3.296-13.18h-23.889c0,0,2.372,11.994,4.119,18.123c1.729,6.054,4.811,12.084,4.942,18.122
	c0.148,6.911-3.468,19.886-3.468,19.886l23.238-0.115c0,0,2.504-12.447,4.942-18.123c0.964-2.257,2.866-4.077,4.118-5.766
	c3.855-5.215,51.073-69.196,51.073-69.196L473.773,332.38z"/>
<path d="M291.163,115.517c12.908,20.775,37.571,39.038,76.074,30.833c9.712-2.068,31.739-18.634,35.562-27.407
	c-33.008,22.464-53.486,14.943-63.183,12.093c-2.134-0.618-7.084-2.833-11.688-5.602c-10.224-6.153-15.281-8.962-23.247-20.544
	c-4.374-6.359-8.748-16.458-10.182-22.25c-2.364-9.572-1.713-24.301,2.793-36.979c-14.943,13.336-17.25,39.095-12.241,56.123
	C285.685,103.943,289.235,112.412,291.163,115.517z"/>
<path d="M179.552,353.113c-1.269-9.209-7.274-19.218-13.864-23.411c-0.271-0.164-1.45-1.104-1.788-1.301
	c-4.876-2.826-12.686-5.207-18.123-5.767c-28.032-2.875-44.755,9.58-54.368,26.36c-3.781,6.59-6.286,13.789-8.238,21.417
	c-2.158,8.452-3.707,18.7-2.471,28.008c0.741,5.577,3.806,13.502,8.237,18.123c10.915,11.376,32.316,9.885,55.192,9.885
	c7.01,0,23.823-0.14,28.897-0.271c1.639-0.05,6.343-19.193,5.923-19.812c-0.404-0.478-6.005,0.189-12.397-0.387
	C172.822,389.4,181.924,370.363,179.552,353.113z M150.721,383.593c-2.076,7.356-4.119,14.795-6.59,21.418
	c-16.648-0.1-32.11,2.175-37.069-8.238c-2.801-5.89-1.541-13.863,0-21.417c2.067-10.174,4.044-17.563,9.885-23.89
	c4.514-4.885,15.874-10.873,28.008-6.59c4.028,1.425,10.272,8.205,10.709,15.651C156.067,367.488,152.895,375.866,150.721,383.593z"
	/>
<path d="M41.161,407.481c-3.402,15.998-3.847,32.604-21.417,30.479c-1.681,6.178-3.814,14.457-5.701,21.352
	c7.208,0.148,13.839,0.7,19.705,0.065c3.608-0.395,10.124-1.952,11.532-3.295c0.568-0.543,0.964-0.288,1.647-0.823
	c7.645-5.973,9.531-14.227,12.356-25.537c4.514-18.073,10.272-44.038,13.18-60.134c-7.414,0-14.828,0-22.241,0
	C49.093,373.296,43.129,398.239,41.161,407.481z"/>
<path d="M343.686,352.355c-4.489-6.26-13.683-8.435-19.77-9.061c-16.171-1.656-29.631,2.669-37.069,8.237
	c-2.249,1.681-4.119,3.031-5.767,4.942c-0.593,0.692-1.235,1.466-1.787,2.266c-0.479,0.675-1.047,1.137-1.508,1.854
	c-0.684,1.037-1.408,2.998-2.266,4.736c-0.684,1.392-1.334,3.031-1.854,4.324c-4.465,11.154-9.02,31.971-4.942,42.836
	c0.602,1.606,1.944,3.641,2.405,4.259c0.577,0.774,1.104,1.672,1.714,2.331c2.232,2.405,5.535,4.103,9.062,4.942
	c17.851,4.259,53.544,2.472,53.544,2.472l4.374-19.375c0,0-25.256,1.137-37.324-0.396c-1.804-0.23-6.829-0.486-9.407-2.743
	c-2.241-1.96-4.885-6.598-2.949-9.613c1.376-2.149,6.911-1.507,11.532-1.647c14.869-0.453,42.012,0,42.012,0
	s5.198-23.114,2.472-32.95C345.481,357.348,344.889,354.028,343.686,352.355z M325.975,375.562l-31.92-0.206
	c0,0-0.362-13.79,18.246-13.205c6.59,0.206,8.904,1.104,11.409,4.967C326.643,371.648,325.975,375.562,325.975,375.562z"/>
<path d="M51.046,363.822c7.686,0,15.379,0,23.065,0c1.458-6.228,2.842-13.369,4.226-19.671c-8.106,0-14.968-0.099-22.349-0.099
	C54.201,350.058,52.833,356.919,51.046,363.822z"/>
<path d="M223.903,303.589c15.313,6.87,38.774,13.188,63.388,12.678c52.663-1.096,89.576-25.989,110.408-66.559l1.228-3.172
	c-18.378,18.535-48.346,31.402-71.84,33.807c-97.78,10.017-198.361-77.573-165.715-179.785l1.244-4.053
	c-0.692,0,5.494-9.506,4.802-9.506c-45.307,43.84-41.377,102.55-19.589,144.743C163.019,261.183,190.829,288.737,223.903,303.589z"
	/>
<path d="M247.924,344.053l-14.828,61.781c0,0-8.205,0.058-10.709,0c-7.908-0.181-10.503-0.444-12.356-4.118
	c-1.953-3.864-0.083-8.781,0.824-14.004c2.529-14.581,8.608-43.783,8.608-43.783l-21.516,0.197c0,0-4.094,18.758-6.039,27.935
	c-2.751,12.966-8.608,32.052-2.471,43.658c6.327,11.953,21.195,9.886,37.893,9.886c7.364,0,14.935,0,23.889,0
	c5.898-26.772,17.472-81.676,17.472-81.676L247.924,344.053z"/>
</svg>
