<?xml version="1.0" encoding="utf-8"?>
<!-- Generator: Adobe Illustrator 16.0.0, SVG Export Plug-In . SVG Version: 6.00 Build 0)  -->
<!DOCTYPE svg PUBLIC "-//W3C//DTD SVG 1.1//EN" "http://www.w3.org/Graphics/SVG/1.1/DTD/svg11.dtd">
<svg version="1.1" id="Calque_1" xmlns="http://www.w3.org/2000/svg" xmlns:xlink="http://www.w3.org/1999/xlink" x="0px" y="0px"
	 width="841.89px" height="595.28px" viewBox="0 0 841.89 595.28" enable-background="new 0 0 841.89 595.28" xml:space="preserve">
<g>
	<circle fill="#FFFFFF" cx="293.517" cy="408.281" r="110.782"/>
	<path d="M293.518,535.543c-70.172,0-127.262-57.089-127.262-127.262c0-70.172,57.089-127.261,127.262-127.261
		c70.172,0,127.262,57.089,127.262,127.261C420.779,478.454,363.689,535.543,293.518,535.543z M293.518,313.98
		c-51.999,0-94.302,42.301-94.302,94.301c0,52.001,42.303,94.303,94.302,94.303c51.999,0,94.302-42.302,94.302-94.303
		C387.819,356.281,345.516,313.98,293.518,313.98z"/>
</g>
<g>
	<circle fill="#E30613" cx="293.518" cy="408.281" r="60.561"/>
</g>
<g>
	<circle fill="#FFFFFF" cx="548.649" cy="408.281" r="110.782"/>
	<path d="M548.648,535.543c-70.168,0-127.26-57.089-127.26-127.262c0-70.172,57.092-127.261,127.26-127.261
		c70.176,0,127.262,57.089,127.262,127.261C675.91,478.454,618.824,535.543,548.648,535.543z M548.648,313.98
		c-51.996,0-94.302,42.301-94.302,94.301c0,52.001,42.306,94.303,94.302,94.303c52.001,0,94.302-42.302,94.302-94.303
		C642.95,356.281,600.649,313.98,548.648,313.98z"/>
</g>
<g>
	<circle fill="#E30613" cx="548.65" cy="408.281" r="60.561"/>
</g>
<g>
	<circle fill="#FFFFFF" cx="419.843" cy="186.718" r="110.781"/>
	<path d="M419.844,313.98c-70.172,0-127.262-57.09-127.262-127.262s57.09-127.262,127.262-127.262
		c70.174,0,127.26,57.09,127.26,127.262S490.018,313.98,419.844,313.98z M419.844,92.417c-51.999,0-94.302,42.303-94.302,94.302
		s42.303,94.302,94.302,94.302c51.999,0,94.3-42.303,94.3-94.302S471.843,92.417,419.844,92.417z"/>
</g>
<g>
	<circle fill="#E30613" cx="419.844" cy="186.718" r="60.561"/>
</g>
<g>
	<path fill="#E30613" d="M347.585,332.084c-5.222,7.854-14.892,10.61-21.598,6.151l0,0c-6.704-4.456-7.907-14.438-2.683-22.296
		l37.266-56.05c5.223-7.857,14.892-10.611,21.598-6.153l0,0c6.704,4.46,7.908,14.441,2.682,22.295L347.585,332.084z"/>
</g>
<g>
	<path fill="#E30613" d="M388.558,413.768c-9.429,0.058-17.118-6.423-17.167-14.477l0,0c-0.05-8.047,7.555-14.624,16.99-14.678
		l67.311-0.415c9.435-0.057,17.12,6.424,17.17,14.478l0,0c0.047,8.051-7.56,14.627-16.991,14.678L388.558,413.768z"/>
</g>
<g>
	<path fill="#E30613" d="M516.107,309.988c5.726,7.493,5.182,17.532-1.22,22.421l0,0c-6.395,4.889-16.223,2.778-21.952-4.721
		l-40.863-53.487c-5.729-7.496-5.186-17.535,1.216-22.424l0,0c6.398-4.887,16.227-2.775,21.952,4.723L516.107,309.988z"/>
</g>
</svg>
