<?xml version="1.0" encoding="utf-8"?>
<!-- Generator: Adobe Illustrator 16.0.0, SVG Export Plug-In . SVG Version: 6.00 Build 0)  -->
<!DOCTYPE svg PUBLIC "-//W3C//DTD SVG 1.1//EN" "http://www.w3.org/Graphics/SVG/1.1/DTD/svg11.dtd">
<svg version="1.1" id="Calque_1" xmlns="http://www.w3.org/2000/svg" xmlns:xlink="http://www.w3.org/1999/xlink" x="0px" y="0px"
	 width="841.89px" height="595.28px" viewBox="0 0 841.89 595.28" enable-background="new 0 0 841.89 595.28" xml:space="preserve">
<g>
	<circle fill="#FFFFFF" cx="222.278" cy="233.417" r="58.964"/>
	<path d="M222.28,303.414c-38.597,0-69.997-31.4-69.997-69.997s31.4-69.997,69.997-69.997c38.593,0,69.993,31.4,69.993,69.997
		S260.873,303.414,222.28,303.414z M222.28,185.484c-26.431,0-47.934,21.503-47.934,47.934s21.503,47.934,47.934,47.934
		c26.43,0,47.93-21.503,47.93-47.934S248.71,185.484,222.28,185.484z"/>
</g>
<g>
	<circle fill="#E30613" cx="222.278" cy="233.417" r="32.235"/>
</g>
<g>
	<circle fill="#FFFFFF" cx="358.076" cy="233.417" r="58.965"/>
	<path d="M358.076,303.414c-38.597,0-69.997-31.4-69.997-69.997s31.4-69.997,69.997-69.997s69.997,31.4,69.997,69.997
		S396.673,303.414,358.076,303.414z M358.076,185.484c-26.43,0-47.934,21.503-47.934,47.934s21.503,47.934,47.934,47.934
		s47.934-21.503,47.934-47.934S384.506,185.484,358.076,185.484z"/>
</g>
<g>
	<circle fill="#E30613" cx="358.076" cy="233.417" r="32.233"/>
</g>
<g>
	<circle fill="#FFFFFF" cx="289.516" cy="115.487" r="58.965"/>
	<path d="M289.516,185.484c-38.597,0-69.997-31.4-69.997-69.997s31.4-69.997,69.997-69.997s69.997,31.4,69.997,69.997
		S328.112,185.484,289.516,185.484z M289.516,67.553c-26.43,0-47.934,21.503-47.934,47.934s21.503,47.934,47.934,47.934
		s47.934-21.503,47.934-47.934S315.946,67.553,289.516,67.553z"/>
</g>
<g>
	<circle fill="#E30613" cx="289.517" cy="115.487" r="32.235"/>
</g>
<g>
	<path fill="#E30613" d="M251.055,192.86c-2.779,4.182-7.925,5.647-11.495,3.273l0,0c-3.569-2.372-4.208-7.685-1.425-11.865
		l19.833-29.835c2.78-4.182,7.926-5.648,11.495-3.275l0,0c3.57,2.374,4.209,7.687,1.429,11.867L251.055,192.86z"/>
</g>
<g>
	<path fill="#E30613" d="M272.864,236.337c-5.017,0.03-9.111-3.419-9.136-7.705l0,0c-0.029-4.284,4.022-7.784,9.042-7.814
		l35.828-0.219c5.02-0.031,9.11,3.418,9.139,7.705l0,0c0.025,4.286-4.026,7.785-9.046,7.814L272.864,236.337z"/>
</g>
<g>
	<path fill="#E30613" d="M340.756,181.099c3.045,3.988,2.758,9.333-0.65,11.933l0,0c-3.404,2.604-8.637,1.479-11.686-2.512
		l-21.751-28.468c-3.049-3.992-2.758-9.335,0.646-11.937l0,0c3.408-2.6,8.64-1.476,11.686,2.514L340.756,181.099z"/>
</g>
<g>
	<path fill="#FFFFFF" d="M499.119,118.367c0-32.565,26.395-58.965,58.958-58.967c32.567,0,58.969,26.399,58.969,58.965
		c0,32.565-26.397,58.965-58.966,58.965C525.517,177.332,499.119,150.933,499.119,118.367z"/>
	<path d="M558.08,188.362L558.08,188.362c-18.694,0.001-36.272-7.279-49.491-20.5c-13.223-13.22-20.502-30.799-20.502-49.496
		c0-38.595,31.396-69.997,69.99-69.999c38.597,0,70.001,31.4,70.001,69.997C628.078,156.962,596.678,188.362,558.08,188.362
		L558.08,188.362z M558.077,70.432c-26.427,0.001-47.927,21.505-47.927,47.935c0,12.804,4.984,24.841,14.038,33.895
		c9.053,9.053,21.09,14.038,33.892,14.038l0,0c26.431,0,47.934-21.503,47.934-47.934C606.014,91.935,584.511,70.432,558.077,70.432z
		"/>
</g>
<g>
	<circle fill="#E30613" cx="558.083" cy="118.366" r="32.235"/>
</g>
<g>
	<circle fill="#FFFFFF" cx="422.285" cy="118.368" r="58.965"/>
	<path d="M422.284,188.366L422.284,188.366c-38.597,0-69.997-31.4-69.997-69.997s31.4-69.997,69.994-69.997
		c18.698-0.002,36.276,7.279,49.499,20.5c13.219,13.221,20.501,30.799,20.501,49.496
		C492.281,156.962,460.881,188.364,422.284,188.366z M422.281,70.435c-26.431,0-47.931,21.503-47.931,47.934
		s21.503,47.934,47.934,47.934c26.431-0.002,47.934-21.505,47.934-47.936c0-12.804-4.987-24.841-14.041-33.894
		C447.124,75.419,435.087,70.435,422.281,70.435z"/>
</g>
<g>
	<circle fill="#E30613" cx="422.284" cy="118.368" r="32.233"/>
</g>
<g>
	<circle fill="#FFFFFF" cx="490.845" cy="236.298" r="58.965"/>
	<path d="M490.849,306.295c-38.597,0-70-31.4-70-69.996c0-38.597,31.4-69.999,69.997-69.999s69.997,31.4,69.997,69.996
		C560.842,274.893,529.441,306.295,490.849,306.295z M490.845,188.364c-26.43,0-47.934,21.503-47.934,47.936
		c0,26.43,21.504,47.932,47.938,47.932c26.431,0,47.93-21.503,47.93-47.935C538.778,209.865,517.275,188.364,490.845,188.364z"/>
</g>
<g>
	<circle fill="#E30613" cx="490.843" cy="236.297" r="32.235"/>
</g>
<g>
	<circle fill="#FFFFFF" cx="617.046" cy="233.417" r="58.966"/>
	<path d="M617.05,303.414c-38.597,0-70.001-31.4-70.001-69.995c0-38.597,31.4-69.999,69.997-69.999s69.997,31.4,69.997,69.995
		C687.043,272.013,655.643,303.414,617.05,303.414z M617.046,185.484c-26.431,0-47.934,21.503-47.934,47.935
		c0,26.431,21.503,47.932,47.938,47.932c26.43,0,47.93-21.503,47.93-47.936C664.979,206.985,643.477,185.484,617.046,185.484z"/>
</g>
<g>
	<circle fill="#E30613" cx="617.044" cy="233.417" r="32.235"/>
</g>
<g>
	<path fill="#E30613" d="M529.306,158.924c2.779-4.182,7.925-5.647,11.495-3.275l0,0c3.569,2.372,4.208,7.685,1.426,11.865
		l-19.834,29.836c-2.779,4.182-7.926,5.648-11.495,3.275l0,0c-3.569-2.374-4.209-7.687-1.429-11.867L529.306,158.924z"/>
</g>
<g>
	<path fill="#E30613" d="M507.497,115.447c5.017-0.03,9.11,3.419,9.136,7.705l0,0c0.028,4.284-4.022,7.784-9.043,7.814
		l-35.828,0.219c-5.02,0.031-9.11-3.418-9.139-7.705l0,0c-0.025-4.286,4.025-7.785,9.046-7.814L507.497,115.447z"/>
</g>
<g>
	<path fill="#E30613" d="M373.277,114.178c5.017-0.03,9.11,3.419,9.136,7.705l0,0c0.028,4.284-4.022,7.784-9.042,7.814
		l-35.828,0.219c-5.021,0.031-9.111-3.418-9.139-7.705l0,0c-0.025-4.286,4.025-7.785,9.046-7.814L373.277,114.178z"/>
</g>
<g>
	<path fill="#E30613" d="M439.604,170.685c-3.046-3.986-2.759-9.333,0.649-11.933l0,0c3.404-2.604,8.637-1.479,11.686,2.512
		l21.751,28.468c3.049,3.992,2.758,9.335-0.646,11.937l0,0c-3.407,2.6-8.64,1.476-11.686-2.514L439.604,170.685z"/>
</g>
<g>
	<path fill="#E30613" d="M569.687,167.807c-3.045-3.986-2.758-9.333,0.65-11.933l0,0c3.404-2.604,8.637-1.479,11.686,2.512
		l21.751,28.468c3.049,3.991,2.758,9.335-0.646,11.937l0,0c-3.408,2.6-8.641,1.476-11.686-2.514L569.687,167.807z"/>
</g>
<g>
	<path fill="#E30613" d="M404.415,238.176c-5.017,0.03-9.11-3.419-9.135-7.705l0,0c-0.029-4.284,4.022-7.783,9.042-7.814
		l35.829-0.219c5.02-0.03,9.11,3.419,9.139,7.705l0,0c0.025,4.286-4.025,7.785-9.046,7.814L404.415,238.176z"/>
</g>
<g>
	<path fill="#E30613" d="M537.256,238.176c-5.017,0.03-9.11-3.419-9.136-7.705l0,0c-0.028-4.284,4.022-7.783,9.042-7.814
		l35.828-0.219c5.021-0.03,9.111,3.419,9.14,7.705l0,0c0.025,4.286-4.025,7.785-9.046,7.814L537.256,238.176z"/>
</g>
<g>
	<path fill="#FFFFFF" d="M560.706,361.582c0-32.566,26.397-58.965,58.961-58.965c32.567,0,58.966,26.398,58.966,58.965
		c0,32.568-26.398,58.966-58.966,58.966C587.104,420.548,560.706,394.15,560.706,361.582z"/>
	<path d="M619.667,431.58c-38.593,0-69.993-31.4-69.993-69.998c0-38.596,31.4-69.997,69.993-69.997
		c38.597,0,69.997,31.401,69.997,69.997C689.664,400.18,658.264,431.58,619.667,431.58z M619.667,313.649
		c-26.43,0-47.93,21.503-47.93,47.933c0,26.431,21.5,47.934,47.93,47.934c26.431,0,47.934-21.503,47.934-47.934
		C667.601,335.152,646.098,313.649,619.667,313.649z"/>
</g>
<g>
	<path fill="#E30613" d="M587.434,361.582c0-17.801,14.433-32.232,32.233-32.232c17.805,0,32.237,14.432,32.237,32.232
		c0,17.802-14.433,32.237-32.237,32.237C601.866,393.819,587.434,379.384,587.434,361.582z"/>
</g>
<g>
	<path fill="#FFFFFF" d="M424.906,361.582c0-32.566,26.397-58.965,58.965-58.965s58.966,26.398,58.966,58.965
		c0,32.568-26.398,58.966-58.966,58.966S424.906,394.15,424.906,361.582z"/>
	<path d="M483.871,431.58c-38.597,0-69.997-31.4-69.997-69.998c0-38.596,31.4-69.997,69.997-69.997s69.997,31.401,69.997,69.997
		C553.868,400.18,522.468,431.58,483.871,431.58z M483.871,313.649c-26.43,0-47.934,21.503-47.934,47.933
		c0,26.431,21.504,47.934,47.934,47.934c26.431,0,47.934-21.503,47.934-47.934C531.805,335.152,510.302,313.649,483.871,313.649z"/>
</g>
<g>
	<circle fill="#E30613" cx="483.871" cy="361.582" r="32.233"/>
</g>
<g>
	<circle fill="#FFFFFF" cx="552.432" cy="479.514" r="58.965"/>
	<path d="M552.432,549.51c-38.597,0-69.997-31.399-69.997-69.996c0-38.598,31.4-69.998,69.997-69.998s69.997,31.4,69.997,69.998
		C622.429,518.11,591.028,549.51,552.432,549.51z M552.432,431.58c-26.43,0-47.934,21.503-47.934,47.934
		c0,26.43,21.504,47.934,47.934,47.934c26.431,0,47.934-21.504,47.934-47.934C600.365,453.083,578.862,431.58,552.432,431.58z"/>
</g>
<g>
	<path fill="#E30613" d="M520.195,479.514c0-17.802,14.436-32.237,32.236-32.237s32.233,14.436,32.233,32.237
		c0,17.801-14.433,32.232-32.233,32.232S520.195,497.314,520.195,479.514z"/>
</g>
<g>
	<path fill="#E30613" d="M590.893,402.14c2.779-4.184,7.925-5.648,11.494-3.271l0,0c3.57,2.369,4.209,7.685,1.426,11.864
		l-19.833,29.835c-2.779,4.18-7.926,5.645-11.495,3.274l0,0c-3.569-2.377-4.209-7.688-1.43-11.868L590.893,402.14z"/>
</g>
<g>
	<path fill="#E30613" d="M569.084,358.663c5.017-0.028,9.11,3.419,9.135,7.706l0,0c0.029,4.281-4.021,7.782-9.042,7.814
		l-35.828,0.216c-5.021,0.032-9.11-3.419-9.139-7.703l0,0c-0.025-4.284,4.025-7.785,9.046-7.814L569.084,358.663z"/>
</g>
<g>
	<path fill="#E30613" d="M501.191,413.9c-3.046-3.985-2.759-9.333,0.649-11.933l0,0c3.404-2.604,8.637-1.479,11.686,2.51
		l21.751,28.471c3.049,3.993,2.758,9.336-0.646,11.937l0,0c-3.408,2.6-8.64,1.476-11.686-2.514L501.191,413.9z"/>
</g>
<g>
	<path fill="#FFFFFF" d="M342.829,476.633c0,32.567-26.395,58.966-58.958,58.969c-32.567,0-58.969-26.401-58.969-58.965
		c0-32.567,26.398-58.965,58.965-58.965C316.431,417.668,342.829,444.065,342.829,476.633z"/>
	<path d="M283.87,546.634L283.87,546.634c-38.597,0-70-31.4-70-69.997s31.4-69.997,69.997-69.997
		c18.695-0.004,36.273,7.275,49.492,20.498c13.222,13.222,20.501,30.797,20.501,49.495
		C353.86,515.227,322.463,546.63,283.87,546.634z M283.867,428.703c-26.43,0-47.934,21.504-47.934,47.934
		c0,26.431,21.503,47.934,47.937,47.934c26.427-0.004,47.927-21.507,47.927-47.938c0-12.802-4.984-24.839-14.038-33.896
		C308.706,433.688,296.669,428.703,283.867,428.703z"/>
</g>
<g>
	<circle fill="#E30613" cx="283.865" cy="476.635" r="32.235"/>
</g>
<g>
	<path fill="#FFFFFF" d="M478.628,476.63c0,32.567-26.394,58.965-58.961,58.965c-32.567,0.004-58.969-26.395-58.969-58.962
		s26.398-58.965,58.965-58.969C452.23,417.664,478.628,444.065,478.628,476.63z"/>
	<path d="M419.667,546.627L419.667,546.627c-18.699,0.003-36.277-7.275-49.5-20.498c-13.218-13.223-20.501-30.797-20.501-49.496
		c0-38.593,31.4-69.997,69.997-70c38.597,0,69.997,31.4,69.997,69.997S458.26,546.627,419.667,546.627L419.667,546.627z
		 M419.663,428.696c-26.431,0.003-47.934,21.507-47.934,47.937c0,12.803,4.988,24.84,14.041,33.896
		c9.053,9.05,21.09,14.034,33.896,14.034l0,0c26.43,0,47.93-21.504,47.93-47.934C467.597,450.199,446.093,428.696,419.663,428.696z"
		/>
</g>
<g>
	<circle fill="#E30613" cx="419.663" cy="476.631" r="32.233"/>
</g>
<g>
	<path fill="#FFFFFF" d="M410.067,358.699c0,32.57-26.397,58.969-58.965,58.969s-58.966-26.398-58.966-58.962
		c0-32.567,26.395-58.969,58.962-58.969S410.067,326.135,410.067,358.699z"/>
	<path d="M351.103,428.699c-38.597,0-69.997-31.4-69.997-69.993c0-38.597,31.4-70,69.993-70c38.597,0,70.001,31.4,70.001,69.994
		C421.1,397.296,389.699,428.699,351.103,428.699z M351.099,310.77c-26.43,0-47.93,21.503-47.93,47.937
		c0,26.431,21.503,47.93,47.934,47.93c26.43,0,47.934-21.503,47.934-47.937C399.036,332.269,377.533,310.77,351.099,310.77z"/>
</g>
<g>
	<path fill="#E30613" d="M383.339,358.702c0,17.802-14.436,32.237-32.237,32.237c-17.801,0-32.233-14.436-32.233-32.237
		c0-17.801,14.432-32.233,32.233-32.233C368.903,326.469,383.339,340.901,383.339,358.702z"/>
</g>
<g>
	<path fill="#FFFFFF" d="M283.867,361.579c0,32.571-26.398,58.969-58.965,58.969s-58.965-26.397-58.965-58.962
		c0-32.567,26.395-58.969,58.962-58.969S283.867,329.016,283.867,361.579z"/>
	<path d="M224.901,431.58c-38.597,0-69.997-31.4-69.997-69.994c0-38.597,31.4-70,69.994-70c38.597,0,70,31.401,70,69.994
		C294.898,400.176,263.498,431.58,224.901,431.58z M224.898,313.649c-26.43,0-47.93,21.503-47.93,47.937
		c0,26.431,21.503,47.93,47.934,47.93s47.934-21.503,47.934-47.937C272.835,335.148,251.332,313.649,224.898,313.649z"/>
</g>
<g>
	<path fill="#E30613" d="M257.139,361.582c0,17.802-14.437,32.237-32.237,32.237s-32.233-14.436-32.233-32.237
		c0-17.801,14.433-32.232,32.233-32.232S257.139,343.781,257.139,361.582z"/>
</g>
<g>
	<path fill="#E30613" d="M312.642,436.076c-2.78,4.184-7.925,5.648-11.495,3.274l0,0c-3.569-2.374-4.208-7.685-1.426-11.864
		l19.833-29.839c2.779-4.18,7.926-5.646,11.495-3.274l0,0c3.569,2.377,4.209,7.688,1.429,11.868L312.642,436.076z"/>
</g>
<g>
	<path fill="#E30613" d="M334.451,479.553c-5.017,0.028-9.111-3.419-9.136-7.706l0,0c-0.029-4.281,4.022-7.782,9.042-7.814
		l35.828-0.216c5.021-0.032,9.111,3.419,9.139,7.703l0,0c0.025,4.284-4.025,7.785-9.046,7.814L334.451,479.553z"/>
</g>
<g>
	<path fill="#E30613" d="M468.67,480.824c-5.017,0.028-9.11-3.419-9.136-7.707l0,0c-0.028-4.284,4.022-7.785,9.043-7.813
		l35.828-0.22c5.021-0.032,9.11,3.419,9.139,7.703l0,0c0.025,4.288-4.025,7.785-9.046,7.814L468.67,480.824z"/>
</g>
<g>
	<path fill="#E30613" d="M402.343,424.314c3.045,3.986,2.758,9.334-0.65,11.934l0,0c-3.404,2.604-8.637,1.479-11.686-2.51
		l-21.751-28.471c-3.049-3.993-2.758-9.336,0.646-11.937l0,0c3.408-2.6,8.64-1.476,11.685,2.514L402.343,424.314z"/>
</g>
<g>
	<path fill="#E30613" d="M272.261,427.195c3.045,3.985,2.758,9.329-0.65,11.93l0,0c-3.404,2.606-8.636,1.479-11.685-2.511
		l-21.751-28.466c-3.049-3.994-2.758-9.337,0.646-11.938l0,0c3.408-2.6,8.64-1.479,11.686,2.514L272.261,427.195z"/>
</g>
<g>
	<path fill="#E30613" d="M437.532,356.824c5.017-0.028,9.11,3.419,9.136,7.707l0,0c0.028,4.28-4.022,7.781-9.043,7.813
		l-35.828,0.216c-5.02,0.032-9.11-3.419-9.139-7.703l0,0c-0.025-4.284,4.025-7.785,9.046-7.814L437.532,356.824z"/>
</g>
<g>
	<path fill="#E30613" d="M304.691,356.824c5.017-0.028,9.11,3.419,9.136,7.707l0,0c0.028,4.28-4.022,7.781-9.042,7.813
		l-35.828,0.216c-5.02,0.032-9.11-3.419-9.139-7.703l0,0c-0.025-4.284,4.025-7.785,9.046-7.814L304.691,356.824z"/>
</g>
<g>
	<path fill="#E30613" d="M214.408,277.394c-0.028-5.017,3.419-9.11,7.707-9.136l0,0c4.281-0.028,7.782,4.022,7.814,9.042
		l0.216,35.828c0.032,5.021-3.419,9.111-7.703,9.14l0,0c-4.284,0.025-7.785-4.025-7.814-9.046L214.408,277.394z"/>
</g>
<g>
	<path fill="#E30613" d="M350.208,277.394c-0.028-5.017,3.419-9.11,7.707-9.136l0,0c4.281-0.028,7.782,4.022,7.814,9.042
		l0.216,35.828c0.032,5.021-3.419,9.111-7.703,9.14l0,0c-4.284,0.025-7.785-4.025-7.814-9.046L350.208,277.394z"/>
</g>
<g>
	<path fill="#E30613" d="M481.76,281.868c-0.029-5.017,3.419-9.11,7.706-9.136l0,0c4.281-0.029,7.782,4.022,7.814,9.042
		l0.216,35.828c0.032,5.021-3.419,9.11-7.703,9.14l0,0c-4.284,0.025-7.785-4.025-7.814-9.046L481.76,281.868z"/>
</g>
<g>
	<path fill="#E30613" d="M609.178,281.868c-0.028-5.017,3.419-9.11,7.707-9.136l0,0c4.28-0.029,7.781,4.022,7.813,9.042
		l0.216,35.828c0.032,5.021-3.419,9.11-7.703,9.14l0,0c-4.284,0.025-7.785-4.025-7.814-9.046L609.178,281.868z"/>
</g>
</svg>
