<?xml version="1.0" encoding="utf-8"?>
<!-- Generator: Adobe Illustrator 16.0.0, SVG Export Plug-In . SVG Version: 6.00 Build 0)  -->
<!DOCTYPE svg PUBLIC "-//W3C//DTD SVG 1.1//EN" "http://www.w3.org/Graphics/SVG/1.1/DTD/svg11.dtd">
<svg version="1.1" id="Calque_1" xmlns="http://www.w3.org/2000/svg" xmlns:xlink="http://www.w3.org/1999/xlink" x="0px" y="0px"
	 width="841.89px" height="595.28px" viewBox="0 0 841.89 595.28" enable-background="new 0 0 841.89 595.28" xml:space="preserve">
<g>
	<g>
		<path fill="#FFFFFF" d="M613.43,506.561c0,17.359-14.075,31.435-31.435,31.435h-289.89c-17.361,0-31.434-14.075-31.434-31.435
			V118.874c0-17.361,14.073-31.434,31.434-31.434h289.89c17.359,0,31.435,14.073,31.435,31.434V506.561z"/>
	</g>
	<g>
		<path d="M581.995,544.544h-289.89c-20.943,0-37.983-17.04-37.983-37.983V118.874c0-20.943,17.04-37.983,37.983-37.983h289.89
			c20.943,0,37.983,17.04,37.983,37.983v387.687C619.979,527.504,602.938,544.544,581.995,544.544z M292.105,93.988
			c-13.722,0-24.885,11.164-24.885,24.885v387.687c0,13.722,11.164,24.886,24.885,24.886h289.89
			c13.722,0,24.886-11.164,24.886-24.886V118.874c0-13.722-11.164-24.885-24.886-24.885H292.105z"/>
	</g>
</g>
<g>
	<g>
		<path fill="#FFFFFF" d="M581.995,475.127c0,17.359-14.074,31.434-31.434,31.434H260.671c-17.361,0-31.434-14.074-31.434-31.434
			V87.439c0-17.361,14.073-31.434,31.434-31.434h289.891c17.359,0,31.434,14.073,31.434,31.434V475.127z"/>
	</g>
	<g>
		<path d="M550.562,513.109H260.671c-20.943,0-37.983-17.039-37.983-37.982V87.439c0-20.943,17.04-37.983,37.983-37.983h289.891
			c20.943,0,37.982,17.04,37.982,37.983v387.688C588.544,496.07,571.505,513.109,550.562,513.109z M260.671,62.554
			c-13.722,0-24.885,11.164-24.885,24.885v387.688c0,13.722,11.164,24.885,24.885,24.885h289.891
			c13.722,0,24.885-11.163,24.885-24.885V87.439c0-13.722-11.163-24.885-24.885-24.885H260.671z"/>
	</g>
</g>
<g>
	<g>
		<path fill="#E30613" d="M516.277,118.436c0,17.12-12.161,30.998-27.167,30.998H281.08c-15.006,0-27.168-13.878-27.168-30.998l0,0
			c0-17.119,12.163-30.997,27.168-30.997H489.11C504.116,87.439,516.277,101.317,516.277,118.436L516.277,118.436z"/>
	</g>
	<g>
		<path d="M489.11,154.673H281.08c-17.513,0-31.76-16.255-31.76-36.237c0-19.98,14.247-36.236,31.76-36.236H489.11
			c17.513,0,31.759,16.256,31.759,36.236C520.869,138.417,506.623,154.673,489.11,154.673z M281.08,92.679
			c-12.449,0-22.577,11.555-22.577,25.757c0,14.204,10.127,25.759,22.577,25.759H489.11c12.447,0,22.575-11.555,22.575-25.759
			c0-14.203-10.128-25.757-22.575-25.757H281.08z"/>
	</g>
</g>
<g>
	<g>
		<path fill="#E30613" d="M460.628,241.115c0,17.359-14.074,31.435-31.434,31.435H285.992c-17.36,0-31.434-14.075-31.434-31.435
			v-30.733c0-17.359,14.074-31.434,31.434-31.434h143.202c17.359,0,31.434,14.075,31.434,31.434V241.115z"/>
	</g>
	<g>
		<path d="M429.194,277.789H285.992c-20.222,0-36.673-16.451-36.673-36.673v-30.733c0-20.222,16.451-36.673,36.673-36.673h143.202
			c20.219,0,36.673,16.452,36.673,36.673v30.733C465.867,261.337,449.413,277.789,429.194,277.789z M285.992,184.188
			c-14.444,0-26.195,11.752-26.195,26.195v30.733c0,14.443,11.75,26.195,26.195,26.195h143.202
			c14.442,0,26.195-11.752,26.195-26.195v-30.733c0-14.443-11.753-26.195-26.195-26.195H285.992z"/>
	</g>
</g>
<g>
	<g>
		<path fill="#E30613" d="M563.661,241.115c0,17.359-14.072,31.435-31.434,31.435h-22.719c-17.359,0-31.435-14.075-31.435-31.435
			v-30.733c0-17.362,14.075-31.434,31.435-31.434h22.719c17.361,0,31.434,14.072,31.434,31.434V241.115z"/>
	</g>
	<g>
		<path d="M532.228,277.789h-22.719c-20.22,0-36.673-16.451-36.673-36.673v-30.733c0-20.222,16.453-36.673,36.673-36.673h22.719
			c20.222,0,36.673,16.452,36.673,36.673v30.733C568.9,261.337,552.449,277.789,532.228,277.789z M509.509,184.188
			c-14.443,0-26.195,11.752-26.195,26.195v30.733c0,14.443,11.752,26.195,26.195,26.195h22.719
			c14.445,0,26.194-11.752,26.194-26.195v-30.733c0-14.443-11.749-26.195-26.194-26.195H509.509z"/>
	</g>
</g>
<g>
	<g>
		<path fill="#E30613" d="M558.346,397.414c0,17.359-14.282,31.434-31.902,31.434H292.65c-17.619,0-31.901-14.074-31.901-31.434
			v-61.996c0-17.359,14.282-31.435,31.901-31.435h233.793c17.62,0,31.902,14.075,31.902,31.435V397.414z"/>
	</g>
	<g>
		<path d="M526.443,434.087H292.65c-20.522,0-37.218-16.451-37.218-36.673v-61.996c0-20.222,16.696-36.673,37.218-36.673h233.793
			c20.523,0,37.218,16.452,37.218,36.673v61.996C563.661,417.636,546.967,434.087,526.443,434.087z M292.65,309.223
			c-14.66,0-26.584,11.752-26.584,26.195v61.996c0,14.442,11.924,26.194,26.584,26.194h233.793c14.66,0,26.584-11.752,26.584-26.194
			v-61.996c0-14.443-11.924-26.195-26.584-26.195H292.65z"/>
	</g>
</g>
<g>
	<g>
		<path fill="#E30613" d="M364.179,462.029c0,8.68-7.038,15.717-15.717,15.717h-74.693c-8.68,0-15.717-7.037-15.717-15.717l0,0
			c0-8.68,7.038-15.718,15.717-15.718h74.693C357.141,446.312,364.179,453.35,364.179,462.029L364.179,462.029z"/>
	</g>
	<g>
		<path d="M348.461,482.985h-74.693c-11.555,0-20.956-9.401-20.956-20.956c0-11.556,9.401-20.956,20.956-20.956h74.693
			c11.555,0,20.956,9.4,20.956,20.956C369.417,473.584,360.017,482.985,348.461,482.985z M273.769,451.551
			c-5.778,0-10.479,4.699-10.479,10.479c0,5.778,4.701,10.478,10.479,10.478h74.693c5.777,0,10.478-4.699,10.478-10.478
			c0-5.779-4.701-10.479-10.478-10.479H273.769z"/>
	</g>
</g>
<g>
	<g>
		<path fill="#E30613" d="M563.661,462.029c0,8.68-7.037,15.717-15.717,15.717H415.222c-8.68,0-15.717-7.037-15.717-15.717l0,0
			c0-8.68,7.037-15.718,15.717-15.718h132.723C556.624,446.312,563.661,453.35,563.661,462.029L563.661,462.029z"/>
	</g>
	<g>
		<path d="M547.944,482.985H415.222c-11.555,0-20.956-9.401-20.956-20.956c0-11.556,9.401-20.956,20.956-20.956h132.723
			c11.555,0,20.956,9.4,20.956,20.956C568.9,473.584,559.499,482.985,547.944,482.985z M415.222,451.551
			c-5.777,0-10.478,4.699-10.478,10.479c0,5.778,4.701,10.478,10.478,10.478h132.723c5.778,0,10.478-4.699,10.478-10.478
			c0-5.779-4.699-10.479-10.478-10.479H415.222z"/>
	</g>
</g>
<g>
	<path d="M581.561,115.705c-29.376,0-53.274-26.781-53.274-59.7h12c0,26.302,18.516,47.7,41.274,47.7V115.705z"/>
</g>
</svg>
