<?xml version="1.0" encoding="utf-8"?>
<!-- Generator: Adobe Illustrator 16.0.0, SVG Export Plug-In . SVG Version: 6.00 Build 0)  -->
<!DOCTYPE svg PUBLIC "-//W3C//DTD SVG 1.1//EN" "http://www.w3.org/Graphics/SVG/1.1/DTD/svg11.dtd">
<svg version="1.1" id="Calque_1" xmlns="http://www.w3.org/2000/svg" xmlns:xlink="http://www.w3.org/1999/xlink" x="0px" y="0px"
	 width="841.89px" height="595.28px" viewBox="0 0 841.89 595.28" enable-background="new 0 0 841.89 595.28" xml:space="preserve">
<g>
	<path fill="#FFFFFF" d="M721.474,397.383c0,20.435-16.564,37.002-37.003,37.002H281.552c-20.436,0-37.003-16.567-37.003-37.002
		V269.929c0-20.436,16.567-37.002,37.003-37.002h402.918c20.438,0,37.003,16.566,37.003,37.002V397.383z"/>
	<path d="M684.471,443.636H281.552c-25.504,0-46.253-20.747-46.253-46.253V269.929c0-25.504,20.749-46.253,46.253-46.253h402.918
		c25.503,0,46.254,20.75,46.254,46.253v127.454C730.725,422.889,709.974,443.636,684.471,443.636z M281.552,242.177
		c-15.302,0-27.752,12.45-27.752,27.752v127.454c0,15.303,12.45,27.752,27.752,27.752h402.918c15.301,0,27.753-12.449,27.753-27.752
		V269.929c0-15.302-12.452-27.752-27.753-27.752H281.552z"/>
</g>
<g>
	<path fill="#FFFFFF" d="M659.803,360.38c0,20.435-16.565,37.003-37.003,37.003H219.881c-20.437,0-37.003-16.568-37.003-37.003
		V232.927c0-20.437,16.566-37.003,37.003-37.003H622.8c20.438,0,37.003,16.566,37.003,37.003V360.38z"/>
	<path d="M622.8,406.633H219.881c-25.504,0-46.254-20.747-46.254-46.253V232.927c0-25.504,20.75-46.254,46.254-46.254H622.8
		c25.503,0,46.254,20.75,46.254,46.254V360.38C669.054,385.886,648.303,406.633,622.8,406.633z M219.881,205.174
		c-15.302,0-27.752,12.45-27.752,27.752V360.38c0,15.304,12.45,27.752,27.752,27.752H622.8c15.301,0,27.752-12.448,27.752-27.752
		V232.927c0-15.302-12.451-27.752-27.752-27.752H219.881z"/>
</g>
<g>
	<path fill="#FFFFFF" d="M596.61,324.403c0,20.435-16.568,37.003-37.003,37.003h-402.92c-20.436,0-37.002-16.568-37.002-37.003
		V196.949c0-20.437,16.566-37.003,37.002-37.003h402.92c20.435,0,37.003,16.566,37.003,37.003V324.403z"/>
	<path d="M559.607,370.657h-402.92c-25.504,0-46.253-20.748-46.253-46.254V196.949c0-25.504,20.75-46.254,46.253-46.254h402.92
		c25.503,0,46.254,20.75,46.254,46.254v127.454C605.861,349.909,585.11,370.657,559.607,370.657z M156.687,169.197
		c-15.302,0-27.752,12.45-27.752,27.752v127.454c0,15.304,12.45,27.753,27.752,27.753h402.92c15.301,0,27.752-12.449,27.752-27.753
		V196.949c0-15.302-12.451-27.752-27.752-27.752H156.687z"/>
</g>
<g>
	<circle fill="#E30613" cx="251.075" cy="260.676" r="47.656"/>
	<path d="M251.075,316.041c-30.528,0-55.364-24.837-55.364-55.365c0-30.529,24.836-55.364,55.364-55.364
		c30.529,0,55.366,24.835,55.366,55.364C306.44,291.204,281.604,316.041,251.075,316.041z M251.075,220.729
		c-22.026,0-39.946,17.92-39.946,39.946c0,22.027,17.92,39.947,39.946,39.947c22.028,0,39.948-17.92,39.948-39.947
		C291.022,238.649,273.103,220.729,251.075,220.729z"/>
</g>
<g>
	<circle fill="#E30613" cx="356.584" cy="260.677" r="47.655"/>
	<path d="M356.584,316.041c-30.528,0-55.364-24.835-55.364-55.364c0-30.529,24.836-55.366,55.364-55.366
		c30.529,0,55.364,24.837,55.364,55.366C411.949,291.206,387.113,316.041,356.584,316.041z M356.584,220.729
		c-22.026,0-39.946,17.92-39.946,39.948c0,22.026,17.92,39.946,39.946,39.946c22.026,0,39.946-17.92,39.946-39.946
		C396.531,238.649,378.611,220.729,356.584,220.729z"/>
</g>
<g>
	<path fill="#E30613" d="M509.75,260.679c0,26.319-21.335,47.653-47.654,47.653c-26.321,0-47.658-21.334-47.658-47.653
		c0-26.32,21.337-47.657,47.658-47.657C488.415,213.022,509.75,234.358,509.75,260.679z"/>
	<path d="M462.096,316.041c-30.528,0-55.367-24.835-55.367-55.362c0-30.528,24.839-55.366,55.367-55.366
		s55.363,24.837,55.363,55.366C517.459,291.206,492.624,316.041,462.096,316.041z M462.096,220.731
		c-22.03,0-39.949,17.92-39.949,39.948c0,22.026,17.919,39.944,39.949,39.944c22.024,0,39.945-17.918,39.945-39.944
		C502.041,238.651,484.12,220.731,462.096,220.731z"/>
</g>
<g>
	<g>
		<path fill="#020304" d="M145.499,260.682c0-1.501,0.571-2.996,1.713-4.138l20.667-20.675c2.284-2.286,5.988-2.289,8.275-0.003
			c2.286,2.284,2.286,5.991,0.001,8.275l-16.531,16.538l16.531,16.53c2.284,2.283,2.284,5.991,0,8.274
			c-2.284,2.289-5.989,2.289-8.276,0l-20.667-20.665C146.071,263.676,145.499,262.178,145.499,260.682z"/>
	</g>
</g>
<g>
	<g>
		<path fill="#020304" d="M559.204,260.669c0,1.501-0.572,2.997-1.714,4.138l-20.666,20.676c-2.282,2.285-5.986,2.289-8.275,0.003
			c-2.285-2.284-2.285-5.991,0-8.275l16.529-16.538l-16.529-16.531c-2.285-2.283-2.285-5.991,0-8.273
			c2.283-2.289,5.986-2.289,8.275,0l20.666,20.665C558.632,257.675,559.204,259.173,559.204,260.669z"/>
	</g>
</g>
</svg>
