<?xml version="1.0" encoding="utf-8"?>
<!-- Generator: Adobe Illustrator 16.0.0, SVG Export Plug-In . SVG Version: 6.00 Build 0)  -->
<!DOCTYPE svg PUBLIC "-//W3C//DTD SVG 1.1//EN" "http://www.w3.org/Graphics/SVG/1.1/DTD/svg11.dtd">
<svg version="1.1" id="Calque_1" xmlns="http://www.w3.org/2000/svg" xmlns:xlink="http://www.w3.org/1999/xlink" x="0px" y="0px"
	 width="841.891px" height="595.279px" viewBox="0 0 841.891 595.279" enable-background="new 0 0 841.891 595.279"
	 xml:space="preserve">
<path fill="none" stroke="#000000" stroke-width="8" stroke-linecap="round" stroke-linejoin="round" stroke-miterlimit="10" stroke-dasharray="12" d="
	M586.445,518.14c0,6.627-5.373,12-12,12h-295c-6.627,0-12-5.373-12-12v-426c0-6.627,5.373-12,12-12h295c6.627,0,12,5.373,12,12
	V518.14z"/>
<path fill="#FFFFFF" stroke="#000000" stroke-width="8" stroke-linecap="round" stroke-linejoin="round" stroke-miterlimit="10" stroke-dasharray="12" d="
	M571.445,503.14c0,6.627-5.373,12-12,12h-295c-6.627,0-12-5.373-12-12v-426c0-6.627,5.373-12,12-12h295c6.627,0,12,5.373,12,12
	V503.14z"/>
<path fill="none" stroke="#E6341F" stroke-width="8" stroke-linecap="round" stroke-linejoin="round" stroke-miterlimit="10" stroke-dasharray="12" d="
	M552.445,142.14c0,6.627-5.373,12-12,12h-258c-6.627,0-12-5.373-12-12v-42c0-6.627,5.373-12,12-12h258c6.627,0,12,5.373,12,12
	V142.14z"/>
<path fill="none" stroke="#E6341F" stroke-width="8" stroke-linecap="round" stroke-linejoin="round" stroke-miterlimit="10" stroke-dasharray="12" d="
	M470.445,226.14c0,6.627-5.373,12-12,12h-176c-6.627,0-12-5.373-12-12v-36c0-6.627,5.373-12,12-12h176c6.627,0,12,5.373,12,12
	V226.14z"/>
<path fill="none" stroke="#E6341F" stroke-width="8" stroke-linecap="round" stroke-linejoin="round" stroke-miterlimit="10" stroke-dasharray="12" d="
	M470.445,309.14c0,6.627-5.373,12-12,12h-176c-6.627,0-12-5.373-12-12v-36c0-6.627,5.373-12,12-12h176c6.627,0,12,5.373,12,12
	V309.14z"/>
<path fill="none" stroke="#E6341F" stroke-width="8" stroke-linecap="round" stroke-linejoin="round" stroke-miterlimit="10" stroke-dasharray="12" d="
	M470.445,392.14c0,6.627-5.373,12-12,12h-176c-6.627,0-12-5.373-12-12v-36c0-6.627,5.373-12,12-12h176c6.627,0,12,5.373,12,12
	V392.14z"/>
<path fill="none" stroke="#E6341F" stroke-width="8" stroke-linecap="round" stroke-linejoin="round" stroke-miterlimit="10" stroke-dasharray="12" d="
	M470.445,473.14c0,6.627-5.373,12-12,12h-176c-6.627,0-12-5.373-12-12v-36c0-6.627,5.373-12,12-12h176c6.627,0,12,5.373,12,12
	V473.14z"/>
<path fill="none" stroke="#E6341F" stroke-width="8" stroke-linecap="round" stroke-linejoin="round" stroke-miterlimit="10" stroke-dasharray="12" d="
	M552.445,308.64c0,6.627-5.373,12-12,12h-41c-6.627,0-12-5.373-12-12v-118.5c0-6.627,5.373-12,12-12h41c6.627,0,12,5.373,12,12
	V308.64z"/>
<path fill="none" stroke="#E6341F" stroke-width="8" stroke-linecap="round" stroke-linejoin="round" stroke-miterlimit="10" stroke-dasharray="12" d="
	M552.445,392.14c0,6.627-5.373,12-12,12h-41c-6.627,0-12-5.373-12-12v-36c0-6.627,5.373-12,12-12h41c6.627,0,12,5.373,12,12V392.14z
	"/>
<path fill="none" stroke="#E6341F" stroke-width="8" stroke-linecap="round" stroke-linejoin="round" stroke-miterlimit="10" stroke-dasharray="12" d="
	M552.445,473.14c0,6.627-5.373,12-12,12h-41c-6.627,0-12-5.373-12-12v-36c0-6.627,5.373-12,12-12h41c6.627,0,12,5.373,12,12V473.14z
	"/>
</svg>
